<svg aria-hidden="true" style="position:absolute;width:0;height:0;overflow:hidden" xmlns="http://www.w3.org/2000/svg"><defs>
<symbol id="icon-arrow" viewBox="0 0 32 32"><path d="M26.6 16.6c0-.2.2-.4.2-.6s0-.4-.2-.6c0-.2-.2-.2-.2-.4L17 5.8c-.6-.6-1.4-.6-1.8 0-.6.6-.6 1.4 0 1.8l7 7H6.6c-.6 0-1.2.6-1.2 1.4s.6 1.4 1.2 1.4H22l-7 7c-.6.6-.6 1.4 0 1.8.2.2.6.4 1 .4s.6-.2 1-.4l9.4-9.4s0-.2.2-.2z"/></symbol>
<symbol id="icon-close" viewBox="0 0 32 32"><path d="M24.213 9.28 22.72 7.787 16 14.507l-6.72-6.72L7.787 9.28l6.72 6.72-6.72 6.72 1.493 1.493 6.72-6.72 6.72 6.72 1.493-1.493-6.72-6.72z"/></symbol>
<symbol id="icon-search" viewBox="0 0 32 32"><path d="M29.067 26.933 24 22.133c1.6-2.133 2.667-4.533 2.667-7.467 0-6.667-5.333-12-12-12s-12 5.333-12 12 5.333 12 12 12c2.933 0 5.333-1.067 7.467-2.667l5.067 5.067c.267.267.533.267 1.067.267s.8 0 1.067-.267c0-.533 0-1.6-.267-2.133zM5.333 14.667c0-5.067 4.267-9.333 9.333-9.333s9.333 4.267 9.333 9.333c0 2.667-1.067 4.8-2.667 6.667-1.867 1.6-4 2.667-6.667 2.667-5.067 0-9.333-4.267-9.333-9.333z"/></symbol>
<symbol id="icon-heart" viewBox="0 0 32 32"><path d="m16 30.144-2.24-2.218C5.44 20.639 0 15.728 0 9.708 0 4.797 3.84.995 8.8.995c2.72 0 5.44 1.267 7.2 3.327C17.76 2.263 20.48.995 23.2.995c4.96 0 8.8 3.802 8.8 8.713 0 6.02-5.44 10.931-13.76 18.218L16 30.144z"/></symbol>
<symbol id="icon-film" viewBox="0 0 32 32"><path d="M26.4 1.333H5.6C3.2 1.333 1.333 3.2 1.333 5.6v20.8c0 2.4 1.867 4.267 4.267 4.267h20.8c2.4 0 4.267-1.867 4.267-4.267V5.6c0-2.4-1.867-4.267-4.267-4.267zM24 10.667h4v4h-4v-4zm-2.667 4H10.666V4h10.667v10.667zM8 14.667H4v-4h4v4zm-4 2.666h4v4H4v-4zm6.667 0h10.667V28H10.667V17.333zm13.333 0h4v4h-4v-4zM28 5.6V8h-4V4h2.4c.933 0 1.6.667 1.6 1.6zM5.6 4H8v4H4V5.6C4 4.667 4.667 4 5.6 4zM4 26.4V24h4v4H5.6c-.933 0-1.6-.667-1.6-1.6zM26.4 28H24v-4h4v2.4c0 .933-.667 1.6-1.6 1.6z"/></symbol></defs></svg>